# xmcd
#
# Track frame offsets:
#	150
#	15761
#	29427
#	40900
#	59174
#	66629
#	78718
#	90199
#	99558
#	111329
#	125800
#	138380
#
# Disc length: 2006 seconds
#
# Revision: 0
# Processed by: cddbd v1.5.2PL0 Copyright (c) Steve Scherf et al.
# Submitted via: EasyCDDAExtractor 10.0.3.1
#
DISCID=a807d40c
DTITLE=Various Artist - Texas Legend
DYEAR=2007
DGENRE=Country
TTITLE0=Willie Nelson - Mamas Don't Let Your Babies Grow Up To Be Cowboys
TTITLE1=Willie Nelson, Leon Russel - Heartbreak Hotel
TTITLE2=Willie Nelson, Faron Young - Hello Walls
TTITLE3=Willie Nelson, Ray Price - Night Life
TTITLE4=Willie Nelson - I Gotta Get Drunk
TTITLE5=Willie Nelson - Ten With A two
TTITLE6=Willie Nelson, Patsy Cline - Just Out O f Reach
TTITLE7=Willie Nelson - One Step Beyond
TTITLE8=Willie Nelson - I Hope So
TTITLE9=Willie Nelson - Will You Rember Mine
TTITLE10=Willie Nelson - Any Old Arms Won't Do
TTITLE11=Willie Nelson - End O f Understanding
EXTD=
EXTT0=
EXTT1=
EXTT2=
EXTT3=
EXTT4=
EXTT5=
EXTT6=
EXTT7=
EXTT8=
EXTT9=
EXTT10=
EXTT11=
PLAYORDER=
